<svg width="74" height="40" viewBox="0 0 74 40" fill="none" xmlns="http://www.w3.org/2000/svg">
<g id="AmityLogo" clip-path="url(#clip0_10633_53082)">
<path id="Vector" d="M19.5799 39.5008C19.4646 39.5006 19.3507 39.4759 19.2463 39.4285C14.6604 37.3521 9.98148 33.4424 6.40708 28.7016C3.53315 24.8823 0.0907403 18.8081 0.0243377 11.5453C0.0210986 11.2041 0.0170495 10.8788 0.0121908 10.5696C-0.0218203 8.08915 -0.0428747 6.59223 0.834125 5.72978C1.2625 5.30838 1.84474 5.10082 2.61566 5.10082H2.63428C12.0837 5.10082 19.073 0.670609 19.145 0.625796C19.2742 0.542332 19.4259 0.497803 19.5811 0.497803C19.7363 0.497803 19.888 0.542332 20.0172 0.625796C20.0868 0.669823 27.1028 5.10082 36.5279 5.10082H36.5474C37.3167 5.10082 37.8989 5.30602 38.3289 5.72978C39.2059 6.59459 39.1848 8.08836 39.1508 10.5696C39.146 10.8788 39.1419 11.2041 39.1387 11.5453C39.1369 11.7486 39.0519 11.9428 38.9026 12.0853C38.7532 12.2278 38.5517 12.3069 38.3423 12.3051C38.1329 12.3034 37.9328 12.2209 37.786 12.0759C37.6392 11.9309 37.5578 11.7352 37.5596 11.5319C37.5628 11.1875 37.5669 10.86 37.5717 10.5492C37.5977 8.68509 37.6179 7.21254 37.2049 6.80687C37.162 6.76441 37.0324 6.63705 36.549 6.63705H36.5312C27.8664 6.63705 21.3072 3.17779 19.5839 2.17067C17.8607 3.17621 11.3006 6.63705 2.63752 6.63705H2.6189C2.13302 6.63705 2.00508 6.76441 1.96216 6.80687C1.54917 7.21254 1.57022 8.68509 1.59613 10.5492C1.59613 10.8636 1.60504 11.1875 1.60747 11.5319C1.66902 18.3836 4.94865 24.1582 7.68978 27.7967C10.971 32.153 15.3933 35.8945 19.5839 37.8844C21.4902 36.9811 23.492 35.6909 25.3942 34.1358C25.4728 34.0662 25.5651 34.0127 25.6655 33.9785C25.766 33.9444 25.8725 33.9303 25.9787 33.9372C26.0848 33.944 26.1885 33.9716 26.2834 34.0184C26.3783 34.0651 26.4625 34.13 26.531 34.2091C26.5994 34.2882 26.6507 34.3799 26.6817 34.4788C26.7127 34.5776 26.7228 34.6815 26.7113 34.7842C26.6999 34.8869 26.6673 34.9864 26.6153 35.0765C26.5633 35.1667 26.4931 35.2457 26.4088 35.3088C24.2904 37.0384 22.0449 38.4646 19.9151 39.4285C19.8102 39.4763 19.6958 39.501 19.5799 39.5008Z" fill="#F06864"/>
<path id="Vector_2" d="M24.5037 23.5152H16.2228L14.4413 27.3675H12.8047L19.5988 12.9385H21.1455L27.9477 27.3699H26.2877L24.5037 23.5152ZM23.9304 22.2777L20.3632 14.5258L16.8002 22.2777H23.9304Z" fill="#18222D"/>
<path id="Vector_3" d="M47.9892 21.082V27.3716H46.4814V21.2267C46.4814 18.938 45.2926 17.7627 43.2754 17.7627C40.9821 17.7627 39.5382 19.2061 39.5382 21.6803V27.37H38.0304V21.2267C38.0304 18.938 36.8408 17.7627 34.8026 17.7627C32.5303 17.7627 31.0654 19.2061 31.0654 21.6803V27.37H29.5576V16.5284H31.0015V18.5072C31.787 17.2084 33.2316 16.4458 35.0998 16.4458C36.9469 16.4458 38.3916 17.2084 39.0678 18.7344C39.8775 17.3326 41.4672 16.4458 43.4843 16.4458C46.2052 16.4434 47.9892 17.9694 47.9892 21.082Z" fill="#18222D"/>
<path id="Vector_4" d="M51.2158 13.1036C51.2228 12.8249 51.343 12.5601 51.5502 12.367C51.7574 12.174 52.0348 12.0683 52.322 12.0729C52.9374 12.0729 53.4257 12.5265 53.4257 13.0832C53.4212 13.3628 53.3042 13.6297 53.0999 13.8269C52.8955 14.024 52.6199 14.1359 52.3318 14.1385C52.0438 14.1412 51.766 14.0345 51.5578 13.8411C51.3496 13.6478 51.2275 13.3831 51.2174 13.1036H51.2158ZM51.5559 16.5259H53.0637V27.3699H51.5559V16.5259Z" fill="#18222D"/>
<path id="Vector_5" d="M62.6194 26.7101C62.0242 27.2258 61.1326 27.4727 60.2621 27.4727C58.1566 27.4727 56.9921 26.3186 56.9921 24.3185V17.7624H54.9944V16.5281H56.9905V14.1545H58.4975V16.5281H61.8986V17.7624H58.4975V24.2328C58.4975 25.5111 59.1769 26.2124 60.4297 26.2124C61.0459 26.2124 61.6614 26.0269 62.0865 25.6558L62.6194 26.7101Z" fill="#18222D"/>
<path id="Vector_6" d="M74.0008 16.5281L68.4133 28.6709C67.4788 30.7936 66.29 31.4744 64.6971 31.4744C63.6566 31.4744 62.6589 31.145 61.9795 30.4854L62.68 29.3926C62.944 29.6575 63.2609 29.8673 63.6114 30.0091C63.9619 30.1509 64.3385 30.2218 64.7182 30.2173C65.7167 30.2173 66.3961 29.7637 67.0334 28.4028L67.5192 27.3516L62.5342 16.5281H64.1052L68.3096 25.7431L72.514 16.5281H74.0008Z" fill="#18222D"/>
</g>
<defs>
<clipPath id="clip0_10633_53082">
<rect width="74" height="39" fill="white" transform="translate(0 0.5)"/>
</clipPath>
</defs>
</svg>
